<svg xmlns="http://www.w3.org/2000/svg" width="64" height="64" fill="none"><g clip-path="url(#a)"><rect width="64" height="64" fill="#4171FF" rx="12"/><path fill="#fff" d="M32.006 13.21c-7.671 0-13.914 6.193-13.914 13.803v19.693c0 2.254 1.845 4.084 4.117 4.084 2.272 0 4.117-1.83 4.117-4.084v-7.15h11.348v7.15c0 2.254 1.845 4.084 4.117 4.084 2.272 0 4.117-1.83 4.117-4.084V27.013c0-7.61-6.243-13.803-13.914-13.803h.012Zm5.68 18.178h-11.36v-4.375c0-3.102 2.553-5.635 5.68-5.635s5.68 2.533 5.68 5.635v4.375Z"/></g><defs><clipPath id="a"><rect width="64" height="64" fill="#fff" rx="12"/></clipPath></defs></svg>