<?xml version="1.0" encoding="utf-8" ?>
<svg xmlns="http://www.w3.org/2000/svg" xmlns:xlink="http://www.w3.org/1999/xlink" width="192" height="40">
	<path fill="#1D1D1B" transform="translate(8 12)" d="M14.248631 1.6522002C14.221366 1.4977045 14.166839 1.3613849 14.166839 1.2250651C14.148663 0.87972194 14.330422 0.65252244 14.675765 0.59799457C14.757557 0.57981861 14.848437 0.57073063 14.930229 0.57073063C15.439156 0.57073063 15.938994 0.57073063 16.447922 0.57073063C16.538801 0.57073063 16.629681 0.57981861 16.72056 0.58890659C17.065905 0.64343446 17.238575 0.84337002 17.238575 1.1978012C17.238575 1.4340887 17.174959 1.6522002 17.120432 1.8793997C17.011375 2.3247106 16.94776 2.7700217 16.902321 3.2244205C16.893232 3.3243883 16.929585 3.3698282 17.002289 3.4243562C17.638447 3.8969312 18.274605 4.3695059 18.874413 4.8784328C19.183403 5.1328964 19.46513 5.4146237 19.692329 5.7508788C19.774122 5.8690224 19.846825 5.9962544 19.901354 6.1325741C20.119465 6.6778526 19.974058 7.1595159 19.483307 7.4866829C19.101612 7.7411461 18.6563 7.832026 18.210989 7.8865538C17.820206 7.931994 17.429422 7.8956418 17.038639 7.8683782C16.920496 7.8683782 16.902321 7.8956418 16.911407 7.9956098C16.965937 8.8407917 17.247663 9.6041822 17.66571 10.331221C17.811119 10.585684 17.983789 10.831059 18.16555 11.058259C18.638124 11.667153 18.938028 12.339664 18.92894 13.12123C18.919851 14.084556 18.501804 14.866122 17.802031 15.50228C17.074991 16.165703 16.202545 16.529222 15.23922 16.692806C14.412214 16.829126 13.585208 16.792774 12.758202 16.620102C12.685498 16.601927 12.621882 16.611013 12.549178 16.62919C11.449533 16.929094 10.331711 17.02906 9.195714 16.929094C8.5959072 16.874565 7.9961004 16.792774 7.4144697 16.611013C7.359942 16.592838 7.3145022 16.611013 7.269062 16.611013C6.5874639 16.756422 5.8967772 16.820038 5.1970029 16.747334C3.9065099 16.611013 2.7614245 16.165703 1.8889785 15.166025C1.3436997 14.548043 1.0528843 13.821005 1.0892363 12.993999C1.1165003 12.257872 1.4164035 11.612625 1.8708025 11.040083C2.5160491 10.213077 2.96136 9.2951908 3.0885918 8.2409849C3.0976796 8.1501055 3.0976796 8.0501375 3.1158557 7.9592576C3.1249437 7.8683782 3.0885918 7.8592901 3.0067999 7.8592901C2.534225 7.8865538 2.06165 7.9229059 1.5890751 7.8502021C1.2073801 7.7865863 0.84386086 7.6866183 0.51669359 7.4685068C0.025942698 7.1504278 -0.11946497 6.6869407 0.098646536 6.1416621C0.27131814 5.7145271 0.57122147 5.3782716 0.90747666 5.0692806C1.7526587 4.3149781 2.6523688 3.6424677 3.5884306 3.006309C5.0334191 2.0248072 6.5329361 1.1341853 8.1505966 0.47076285C8.4777632 0.33444318 8.8049307 0.2344754 9.1411858 0.12541965C9.7682562 -0.065427922 10.386239 -0.029076003 11.004222 0.17085955C12.067515 0.50711477 13.067193 0.99786568 14.039607 1.5340564C14.103223 1.5704083 14.175926 1.6067603 14.248631 1.6522002Z"/>
	<path fill="#F39600" transform="translate(8.62185 12.2708)" d="M16.943897 7.370389C16.316828 7.3340373 15.680669 7.2885971 15.04451 7.2431574C14.590111 7.2158933 14.126624 7.1795416 13.672225 7.1522775C12.290853 7.0795736 10.909479 6.9886937 9.5281067 6.9796057C8.4829893 6.9796057 7.4469595 7.0250459 6.4018416 7.0795736C5.5657477 7.1250134 4.7205653 7.1704535 3.8844714 7.2249813C3.2664888 7.2613335 2.6394181 7.3067732 2.0214355 7.3522129C1.5215968 7.379477 1.0399338 7.3340373 0.59462285 7.0795736C0.26745561 6.8887262 0.040256117 6.6251745 0.0039042011 6.2343917C-0.023359736 5.9163122 0.094783992 5.6436729 0.27654359 5.3982973C0.51283103 5.0802183 0.80364639 4.807579 1.1035497 4.5531154C2.9665854 2.971807 4.9932051 1.6449621 7.2197599 0.61802036C7.7286868 0.38173291 8.2557898 0.19088534 8.8010683 0.063653626C9.3736105 -0.072666064 9.91889 0.02730171 10.464169 0.19997332C11.409318 0.5089646 12.29994 0.95427561 13.163299 1.4359385C14.744607 2.3265605 16.244123 3.3353262 17.616407 4.5258512C17.889048 4.7530508 18.143511 4.9984264 18.379799 5.2710657C18.561558 5.4891772 18.697878 5.7254648 18.743317 6.0071921C18.806934 6.3888874 18.670614 6.6978784 18.379799 6.934166C17.970839 7.2795091 17.471001 7.3522129 16.943897 7.370389Z"/>
	<path fill="#E10517" transform="translate(9.57245 19.5675)" d="M11.540181 8.870862C11.930964 8.7072792 12.303571 8.5164309 12.612562 8.234704C12.857938 8.0075045 13.057873 7.7530408 13.076049 7.3986096C13.085137 7.0805306 12.921554 6.8715067 12.658002 6.7351871C12.376275 6.5897794 12.067284 6.4988999 11.76738 6.3807559C11.503829 6.2807884 11.23119 6.1808205 10.95855 6.0808525C10.885846 6.0535889 10.858582 6.0354128 10.86767 5.9354448C11.076694 4.7630959 11.013078 3.6180103 10.604119 2.5001888C10.413271 1.9639981 10.131544 1.4823352 9.6862326 1.118816C8.8137865 0.40995362 7.5959978 0.53718531 6.8689594 1.4096314C6.3963842 1.982174 6.141921 2.6546845 5.9965134 3.3726349C5.8238416 4.2269049 5.8147535 5.0902629 5.9783373 5.9445329C5.9965134 6.0263247 5.9783373 6.0535889 5.8965454 6.0808525C5.4148827 6.2626123 4.9241319 6.4443717 4.4424686 6.6261315C4.415205 6.6352196 4.3879409 6.6443076 4.3697648 6.6533957C3.7245185 6.9169469 3.5881989 7.4622254 4.0244217 8.0075045C4.3425012 8.4073753 4.7787242 8.6436625 5.2422109 8.8435984C5.278563 8.8617744 5.3149147 8.8799505 5.3785305 8.8981266C5.2422109 8.9435663 5.1149793 8.9526539 4.9968357 8.9617424C3.7881343 9.088974 2.643049 8.9072142 1.6251953 8.2165279C0.77092522 7.6348972 0.21655847 6.844243 0.043886859 5.8173013C-0.074256875 5.126615 0.043886859 4.4631925 0.42558199 3.8724737C0.83454108 3.2363153 1.1980603 2.5728927 1.4434357 1.8549423C1.5979313 1.4005433 1.7160751 0.93705642 1.752427 0.4644815C1.752427 0.34633777 1.7978668 0.29180989 1.9250985 0.29180989C2.3158817 0.27363393 2.7157528 0.24637 3.1065359 0.22819404C4.0789495 0.17366616 5.0604515 0.11913829 6.032865 0.073698394C6.7326398 0.037346475 7.4415021 0.010082535 8.1503649 0.00099455647C9.2681856 -0.0080934232 10.386007 0.046434455 11.503829 0.11005031C12.067284 0.13731425 12.639826 0.16457818 13.20328 0.2009301C13.794 0.23728202 14.384718 0.27363393 14.975437 0.30089787C15.084493 0.30089787 15.111756 0.35542575 15.120845 0.44630554C15.202637 1.3551035 15.511627 2.1911976 15.920587 2.9909399C16.056906 3.2454033 16.202314 3.4998665 16.365898 3.7452421C16.992968 4.6722159 17.02932 5.6537175 16.584009 6.6533957C16.047819 7.8439207 15.09358 8.5346069 13.848528 8.8617744C13.085137 9.0617104 12.321747 9.0617104 11.549269 8.9435663C11.531093 8.9253902 11.531093 8.9072142 11.549269 8.8890381L11.540181 8.870862Z"/>
	<path fill="#FEDE00" transform="translate(15.8471 20.8942)" d="M4.2840476 3.4545743C4.2840476 4.4906039 4.1295519 5.3357859 3.8569126 6.1718802C3.8296487 6.2445841 3.8023849 6.2718477 3.720593 6.2536721C2.6663873 6.0810003 1.6212697 6.0900884 0.56706417 6.2536721C0.51253629 6.2536721 0.46709636 6.2718477 0.43983242 6.1900558C-0.023654517 4.7541552 -0.17815016 3.3000786 0.25807285 1.827826C0.4034805 1.3188992 0.63976794 0.84632421 1.0396391 0.47371706C1.6939735 -0.16244151 2.5936835 -0.15335353 3.2571061 0.47371706C3.666065 0.87358814 3.9023526 1.373427 4.056848 1.9096178C4.2204318 2.4639845 4.2840476 3.0274394 4.2840476 3.4454863L4.2840476 3.4545743Z"/>
	<path fill="#0079BF" transform="translate(13.5737 20.4039)" d="M7.5843453 7.8618021C7.729753 7.5437226 7.6843133 7.3892269 7.411674 7.2074676C7.0845065 6.989356 6.7118998 6.8893881 6.3302045 6.8075962C6.2211485 6.7803326 6.1847968 6.7621565 6.2302365 6.6349249C6.548316 5.689775 6.7028117 4.7082729 6.6482835 3.7085955C6.6028438 2.8452375 6.4210844 2.0091434 5.9394212 1.282105C5.6576939 0.85496992 5.2850866 0.51871473 4.7670722 0.40057099C4.1945291 0.27333927 3.7037785 0.43692288 3.2857313 0.82770598C2.7949805 1.282105 2.5314291 1.8637357 2.3678455 2.4908061C2.0770302 3.6086276 2.1315579 4.7355371 2.3678455 5.8533587C2.4314613 6.125998 2.5041652 6.3986373 2.5950449 6.6621885C2.6313968 6.7530684 2.6132209 6.7894206 2.5132532 6.8075962C2.1951737 6.8712125 1.8770945 6.9620919 1.5862793 7.1074996C1.4953995 7.1529398 1.4136076 7.2074676 1.3318158 7.2710834C1.1137043 7.4619308 1.0955284 7.6164265 1.259112 7.8618021C1.1318803 7.834538 1.0410005 7.7709222 0.94103271 7.7073064C0.62295341 7.5255466 0.35031402 7.2983475 0.1503785 6.989356C0.077674657 6.8712125 0.02314678 6.7348924 0.0049708206 6.5985727C-0.031381097 6.2623177 0.13220254 6.007854 0.47754574 5.8806224C0.96829665 5.698863 1.4590476 5.5171032 1.9497983 5.3353438C2.0406783 5.2989917 2.0770302 5.271728 2.0588541 5.153584C1.8589185 4.0357628 1.9043585 2.9361172 2.2769656 1.8546476C2.4587252 1.3184569 2.7313647 0.818618 3.1766756 0.44601086C4.0127697 -0.24467556 5.2123828 -0.11744384 5.9121575 0.71865022C6.3574681 1.2548411 6.5846677 1.8728236 6.7209873 2.5453341C6.9027472 3.4086921 6.9027472 4.2811379 6.7482514 5.144496C6.7300754 5.26264 6.7664275 5.2989917 6.866395 5.3353438C7.3480582 5.5261912 7.829721 5.7079511 8.3204718 5.8715343C8.5840235 5.9624143 8.7566948 6.125998 8.8021345 6.4168134C8.8293991 6.6167488 8.7657833 6.7985086 8.6658154 6.9620919C8.474968 7.2983475 8.1750641 7.5255466 7.8478971 7.7073064C7.7661052 7.7527461 7.6843133 7.7981863 7.5661697 7.8527141L7.5843453 7.8618021Z"/>
	<path fill="#F39600" transform="translate(14.8328 27.152)" d="M3.1444409 1.6862566C2.3537867 1.6680807 1.5540445 1.6226407 0.77247822 1.3863533C0.59071863 1.3318255 0.40895906 1.2682096 0.24537544 1.1591538C-0.081791811 0.95013028 -0.081791811 0.71384287 0.24537544 0.50481933C0.52710283 0.33214772 0.83609408 0.24126792 1.1541734 0.18674004C2.0902352 0.014068436 3.0353851 -0.049547419 3.9896228 0.041332375C4.5530777 0.09586025 5.1165323 0.14130014 5.6527233 0.32305974C5.8163066 0.37758762 5.9889784 0.45029145 6.125298 0.55025923C6.3706737 0.73201883 6.3706737 0.9410423 6.125298 1.1228019C5.8617468 1.3136495 5.5527554 1.3954413 5.2437639 1.4681451C4.5621657 1.6317288 3.8623912 1.6680807 3.1444409 1.6862566L3.1444409 1.6862566Z"/>
	<path fill="#E10517" transform="translate(22.4746 12.8525)" d="M2.2004731 2.3265226C2.1459451 2.3265226 2.1095932 2.2810829 2.0732412 2.253819C1.4734347 1.8357718 0.85545206 1.4359007 0.22838151 1.0723816C0.13750172 1.0178537 0.082973838 0.94514984 0.064797878 0.84518206C0.037533943 0.68159842 -0.0079059536 0.51801485 0.0011820261 0.3453432C0.010270005 0.1726716 0.092061818 0.063615859 0.26473343 0.027263938C0.34652525 0.0090879789 0.42831704 0 0.51010889 0C0.98268378 0 1.4552587 0 1.9278337 0C1.9823616 0 2.0459774 0 2.1005054 0.018175958C2.3640566 0.072703831 2.4912884 0.23628746 2.4458485 0.50892687C2.4094965 0.76339024 2.3549688 1.0087657 2.3277047 1.2632291C2.2822649 1.6176603 2.245913 1.9720916 2.2095611 2.3265226L2.2004731 2.3265226Z"/>
	<path fill="#980E18" transform="translate(20.6264 28.0135)" d="M0.48620689 0.42486304C0.48620689 0.42486304 0.48620689 0.46121496 0.48620689 0.47939092C0.46803093 0.47939092 0.43167901 0.49756688 0.42259103 0.46121496C0.42259103 0.43395102 0.45894295 0.42486304 0.48620689 0.42486304Z"/>
	<path fill="#1D1D1C" transform="translate(11.3885 21.0771)" d="M1.75398 2.8081856C1.3995488 2.8081856 1.0542057 2.8081856 0.69977438 2.8081856C0.27263939 2.8081856 0 2.5264583 0 2.0902352C0 1.6267483 0 1.1723493 0 0.70886236C0 0.28172737 0.27263939 0.0090879789 0.69977438 0C1.4086368 0 2.1084113 0 2.8172736 0C3.2353206 0 3.498872 0.28172737 3.5079601 0.69977438C3.5079601 1.1723493 3.5079601 1.6358362 3.5079601 2.1084113C3.5079601 2.5173702 3.2353206 2.7990975 2.8263617 2.7990975C2.4719303 2.7990975 2.1174991 2.7990975 1.763068 2.7990975L1.75398 2.8081856Z"/>
	<path fill="#1D1D1C" transform="translate(21.1035 21.0862)" d="M1.75398 2.7990975C1.3995488 2.7990975 1.0542057 2.7990975 0.69977438 2.7990975C0.27263939 2.7990975 0 2.5264583 0 2.0993233C0 1.6267483 0 1.1632613 0 0.6906864C0 0.28172737 0.27263939 0 0.68159842 0C1.3995488 0 2.1084113 0 2.8263617 0C3.2171447 0 3.498872 0.29081532 3.5079601 0.68159842C3.5079601 1.1632613 3.5079601 1.6358362 3.5079601 2.1174991C3.5079601 2.4991944 3.2262328 2.7900097 2.8354495 2.7990975C2.4719303 2.7990975 2.1174991 2.7990975 1.75398 2.7990975L1.75398 2.7990975Z"/>
	<path fill="#1D1D1B" transform="translate(19.0994 24.3987)" d="M0.4409959 0.76793426C0.26832432 0.76793426 0.14109258 0.62252659 0.15018056 0.44076699C0.15018056 0.2680954 0.29558823 0.14086369 0.45917186 0.14086369C0.62275547 0.14086369 0.75907516 0.28627133 0.75907516 0.44985497C0.75907516 0.62252659 0.62275547 0.75884628 0.45008388 0.75884628L0.4409959 0.76793426Z"/>
	<path fill="#0079BF" transform="translate(11.4976 21.1861)" d="M1.6267483 2.580986C1.2723171 2.580986 0.92697388 2.580986 0.57254267 2.580986C0.23628746 2.580986 0 2.3446987 0 2.0084434C0 1.5267805 0 1.0542057 0 0.57254267C0 0.23628746 0.23628746 0.0090879789 0.56345475 0C1.2814051 0 1.9902675 0 2.7082179 0C3.0444732 0 3.2716725 0.23628746 3.2807605 0.56345475C3.2807605 1.0451176 3.2807605 1.5267805 3.2807605 2.0084434C3.2807605 2.3356106 3.0444732 2.5718982 2.7173059 2.5718982C2.3537867 2.5718982 1.9902675 2.5718982 1.6267483 2.5718982L1.6267483 2.580986Z"/>
	<path fill="#0079BF" transform="translate(21.2126 21.1952)" d="M1.6358362 0C1.9902675 0 2.3356106 0 2.6900418 0C3.0444732 0 3.2807605 0.23628746 3.2807605 0.59071863C3.2807605 1.0632936 3.2807605 1.5267805 3.2807605 1.9993554C3.2807605 2.3446987 3.0444732 2.580986 2.6991298 2.580986C1.9902675 2.580986 1.290493 2.580986 0.58163065 2.580986C0.22719948 2.580986 0 2.3537867 0 1.9993554C0 1.5267805 0 1.0542057 0 0.58163065C0 0.23628746 0.22719948 0.0090879789 0.57254267 0.0090879789C0.92697388 0.0090879789 1.2814051 0.0090879789 1.6358362 0.0090879789L1.6358362 0Z"/>
	<path fill="#1D1D1B" transform="translate(11.8247 21.4679)" d="M1.1178215 0.0090879789L1.5540445 0.0090879789C1.5994843 0.045439895 1.5994843 0.10905575 1.6176603 0.15449564C1.7176281 0.4816629 1.8630358 0.7815662 2.1265872 1.0087657C2.2356429 1.1087335 2.3719625 1.1723493 2.5082822 1.2087013C2.5537221 1.2268772 2.6082501 1.2268772 2.6446021 1.2723171C2.6446021 1.3541089 2.6446021 1.4359007 2.6446021 1.5176926C2.6446021 1.8085079 2.4628425 2.0084434 2.1720271 2.0084434C1.6085724 2.0175314 1.0451176 2.0084434 0.4816629 2.0084434C0.19993554 2.0084434 0.027263938 1.8266839 0 1.5358685C0 1.4449887 0 1.3541089 0 1.2632291C0.16358362 1.2087013 0.3453432 1.1905253 0.49075088 1.0723816C0.79974216 0.84518206 0.94514984 0.51801485 1.0451176 0.16358362C1.0632936 0.10905575 1.0632936 0.045439895 1.1087335 0L1.1178215 0.0090879789Z"/>
	<path fill="#FEDE00" transform="translate(11.8247 21.4679)" d="M1.1178215 0.0090879789C1.0451176 0.44531098 0.88153398 0.8270061 0.51801485 1.0996455C0.37260714 1.2177892 0.19993554 1.2814051 0 1.2632291C0 1.0178537 0 0.77247822 0 0.52710283C0 0.19084756 0.19084756 0 0.52710283 0C0.71795034 0 0.9178859 0 1.1087335 0L1.1178215 0.0090879789Z"/>
	<path fill="#FEDE00" transform="translate(13.3879 21.486)" d="M1.0905576 1.2632291C0.7815662 1.2268772 0.54527879 1.0723816 0.36351916 0.83609408C0.1726716 0.59071863 0.054527875 0.30899128 0 0C0.19993554 0 0.40895906 0 0.60889459 0C0.89970994 0 1.0905576 0.19084756 1.0905576 0.4816629C1.0905576 0.74521428 1.0905576 1.0087657 1.0905576 1.2723171L1.0905576 1.2632291Z"/>
	<path fill="#1D1D1B" transform="translate(21.5489 21.477)" d="M2.6446021 1.2723171C2.6446021 1.3450209 2.6446021 1.4177247 2.6446021 1.4904286C2.6446021 1.8085079 2.4719303 1.9993554 2.153851 2.0084434C1.5994843 2.0175314 1.0451176 2.0084434 0.49075088 2.0084434C0.18175958 2.0084434 0 1.8085079 0 1.4904286C0 1.4177247 0 1.3450209 0 1.2723171C0.027263938 1.2450532 0.063615859 1.2359651 0.09996777 1.2268772C0.54527879 1.1450853 0.7815662 0.8270061 0.95423782 0.44531098C1.0178537 0.2999033 1.0269417 0.1363197 1.1178215 0C1.2632291 0 1.4086368 0 1.5540445 0C1.5994843 0.045439895 1.5994843 0.10905575 1.6176603 0.16358362C1.744892 0.52710283 1.8993877 0.872446 2.2356429 1.0905576C2.3174348 1.1450853 2.4174025 1.1814373 2.5082822 1.2087013C2.5537221 1.2268772 2.6082501 1.2268772 2.6446021 1.2723171Z"/>
	<path fill="#FEDE00" transform="translate(21.5579 21.477)" d="M1.1087335 0.0090879789C1.0542057 0.35443118 0.9178859 0.67251045 0.6906864 0.93606186C0.50892687 1.1450853 0.28172737 1.2632291 0 1.2723171C0 1.0087657 0 0.74521428 0 0.4816629C0 0.19993554 0.19993554 0.0090879789 0.4816629 0C0.6906864 0 0.89970994 0 1.1087335 0L1.1087335 0.0090879789Z"/>
	<path fill="#FEDE00" transform="translate(23.1029 21.477)" d="M1.0905576 1.2723171C0.72703832 1.2268772 0.47257492 1.0269417 0.29081532 0.72703832C0.15449564 0.49983886 0.045439895 0.26355141 0 0C0.19993554 0 0.40895906 0 0.60889459 0C0.89970994 0 1.0905576 0.19993554 1.0905576 0.49075088C1.0905576 0.74521428 1.0905576 1.0087657 1.0905576 1.2632291L1.0905576 1.2723171Z"/>
	<path fill="#E1111C" transform="translate(112.548 15.005)" d="M1.2110569 0C1.8592981 0 2.4221139 0.56697828 2.4221139 1.2200156L2.4221139 11.354752C2.4221139 12.007789 1.8592981 12.574767 1.2110569 12.574767C0.56281585 12.574767 0 12.007789 0 11.354752L0 1.2200156C0 0.56697828 0.56281585 0 1.2110569 0Z"/>
	<path fill="#E1111C" transform="translate(116.335 15.0073)" d="M13.353875 0.3925972C14.002116 0.52421713 14.474476 0.91401458 14.348847 1.5670519C14.218194 2.2200892 13.615186 2.6959462 12.926744 2.5693884C10.464433 2.1340303 8.3086519 1.9619119 6.5800085 2.3061485C5.027245 2.6098869 3.8614113 3.2629244 3.167944 4.5689993C2.8212104 5.2220368 2.5649323 5.7434545 2.5197062 6.2648716C2.4744802 6.7457905 2.3890569 7.3937654 2.7357907 7.9151831L2.9518673 7.7430649C3.1679478 8.0468035 3.2533715 8.5277214 3.600105 8.83146C3.9870398 9.1351986 4.4192019 9.3984385 4.8965888 9.6161175C7.5297542 10.876632 11.544831 11.26643 14.564932 10.091974C15.213173 9.8287344 15.901614 10.178034 16.117695 10.790572C16.379002 11.44361 16.162922 11.919466 15.51468 12.137146C11.886539 13.52928 7.2232218 13.139482 4.0724683 11.615727C3.4242272 11.31199 2.8212175 10.96269 2.3036296 10.527332C1.7408155 10.091974 1.3086548 9.6161175 0.92172015 9.0946999C0.18805186 8.0518656 -0.073256165 7.0495291 0.017196093 6.0066938C0.10262322 5.0499182 0.44935656 4.1387033 0.96694446 3.1819274C2.2182007 1.3139368 3.8614173 0.61533862 6.1026235 0.17998035C8.2634268 -0.12375798 10.635283 -0.037698768 13.353875 0.39765948L13.353875 0.3925972Z"/>
	<path fill="#E1111C" transform="translate(117.603 20.528)" d="M7.4673367 0L0 0L0 1.7819312L7.4673367 1.7819312C7.9849248 1.7819312 8.3718615 1.392134 8.3718615 0.87071657C8.4170876 0.43535835 7.9849248 0 7.4673367 0Z"/>
	<path fill="#E1111C" transform="translate(134.107 15.1124)" d="M2.3599238 3.5882089L2.3599238 11.242415C2.3599238 11.895452 1.7971079 12.462431 1.1488667 12.462431C0.50062549 12.462431 0.028265737 11.895452 0.028265737 11.242415L0.028265737 4.3728657C-0.31846794 1.456978 2.5760007 -1.8487068 5.8976088 1.2392994C5.9428353 1.2848601 5.9830408 1.3253585 6.0282669 1.3709193C6.0584178 1.4012932 6.0734916 1.4299794 6.0734916 1.4569784C7.8423357 3.8058879 9.1388187 6.3724775 10.77701 8.8479452L10.77701 8.8935061C10.862437 9.0656242 10.947866 9.1972437 11.038319 9.374424C11.988068 10.807056 13.369975 10.807056 13.415201 8.9846268C13.460427 7.4203739 13.460428 3.1123521 13.329775 1.2848601C13.284549 0.63182271 13.892583 0.064844444 14.540824 0.064844444C15.189066 0.064844444 15.576007 0.63182271 15.576007 1.2848601L15.576007 7.6785517C15.70666 9.6781626 15.09862 11.333536 14.626258 11.809393C13.978017 12.54849 13.113688 12.766169 12.209167 12.766169C12.038312 12.766169 11.862434 12.766169 11.731781 12.720608C9.8775091 12.330811 6.2493696 5.8054986 5.6011286 4.8942838C5.3398218 4.5449848 5.1287632 4.200748 4.8674564 3.8514488C4.6966023 3.5882089 4.4805255 3.2844708 4.2192187 2.9807324C3.1840429 2.0239568 2.3649461 2.808614 2.3649461 3.5882089L2.3599238 3.5882089ZM10.77701 8.8530064C10.862437 9.0251245 10.907661 9.2023058 10.947863 9.4199848L10.77701 8.8530064Z"/>
	<path fill="#E1111C" transform="translate(92.2952 15.0848)" d="M2.3379276 0.74541187C2.0766211 0.13793518 1.3429526 -0.1658031 0.73993754 0.092374474C0.13692252 0.35561433 -0.16458541 1.0947109 0.091695957 1.7021877C1.3027512 4.572515 3.2022488 7.5744624 5.2273746 9.8778114C6.5640578 11.442063 7.8153114 12.57602 9.1117935 12.748138C10.448477 12.920257 11.574106 12.0951 13.212297 10.662468C14.679634 9.3563938 15.589183 7.9237609 16.533907 6.2683868C17.483654 4.6585741 18.217323 3.0943217 18.780138 1.8338076C19.041445 1.2263309 18.78014 0.48723429 18.177124 0.22399442C17.57411 -0.039245456 16.840437 0.22399434 16.57913 0.83147103C16.061543 2.0514867 15.282646 3.5296798 14.418324 5.0483713C13.684656 6.2683873 11.006264 10.571347 9.2826462 10.353668C7.1218419 10.04993 3.4535043 3.352499 2.3329012 0.74034953L2.3379276 0.74541187Z"/>
	<path fill="#E1111C" transform="translate(88.7588 15.005)" d="M1.2110571 0C1.8592982 0 2.4221103 0.56697828 2.4221103 1.2200156L2.4221103 11.354752C2.4221103 12.007789 1.8592982 12.574767 1.2110571 12.574767C0.5628159 12.574767 0 12.007789 0 11.354752L0 1.2200156C0 0.56697828 0.5628159 0 1.2110571 0Z"/>
	<path fill="#E1111C" transform="translate(36.9968 15.1136)" d="M1.5558871 2.8073661C0.90764594 2.9794846 0.21920374 2.6757462 0.043324355 2.0227089C-0.1275299 1.3696716 0.21920377 0.67613578 0.86744487 0.50401741C6.4805098 -0.58437824 9.8473444 0.2407776 12.611163 1.5468522C13.731766 2.2859488 14.857394 3.1111045 15.374982 4.0678802C15.937796 5.1107149 16.194077 6.0269923 16.063423 7.1103258C15.89257 8.7606373 14.942822 10.329952 13.168952 11.372787C12.30463 11.894204 11.354882 12.243504 10.364932 12.461183C9.415184 12.678862 8.5106602 12.764921 7.6011124 12.810482C6.6513638 12.856043 5.8724694 12.896541 5.0986004 12.810482C4.2795048 12.724422 3.4604096 12.461183 2.5508621 12.025824C2.2041283 11.853705 1.7719674 11.504407 1.6865404 11.155107L1.6413143 11.241167L1.6413143 4.2855592C2.0734751 3.0655434 3.7116656 3.4604032 3.756892 4.2855592L3.9277463 9.940155C3.6664398 11.11461 6.8222184 10.679251 7.4654346 10.63369C8.2845297 10.588129 9.1036253 10.50207 9.8825197 10.329951C10.616188 10.157833 11.30463 9.9401541 11.952872 9.5452948C13.033274 8.9378185 13.550861 7.7633629 13.636288 6.8926463C13.681514 6.3256683 13.550861 5.6726308 13.204128 5.1107149C12.857394 4.4576774 12.299605 3.8502011 11.520711 3.369282C9.4503593 2.1948273 6.4252334 1.5012916 1.5458368 2.802304L1.5558871 2.8073661Z"/>
	<path fill="#E1111C" transform="translate(68.637 15.0848)" d="M2.3379276 0.74541187C2.0766211 0.13793518 1.3429526 -0.1658031 0.73993754 0.092374474C0.13692252 0.35561433 -0.16458541 1.0947109 0.091695957 1.7021877C1.3027512 4.572515 3.2022488 7.5744624 5.2273746 9.8778114C6.5640578 11.442063 7.8153114 12.57602 9.1117935 12.748138C10.448477 12.920257 11.574106 12.0951 13.212297 10.662468C14.679634 9.3563938 15.589183 7.9237609 16.533907 6.2683868C17.483654 4.6585741 18.217323 3.0943217 18.780138 1.8338076C19.041445 1.2263309 18.780136 0.48723429 18.17712 0.22399442C17.574106 -0.039245456 16.840437 0.22399434 16.57913 0.83147103C16.061543 2.0514867 15.28265 3.5296798 14.418328 5.0483713C13.68466 6.2683873 11.006268 10.571347 9.28265 10.353668C7.1218457 10.04993 3.4535043 3.352499 2.3329012 0.74034953L2.3379276 0.74541187Z"/>
	<path fill="#E1111C" transform="translate(52.7483 15.0737)" d="M16.543228 12.025262C16.804535 12.632739 17.538202 12.936478 18.141218 12.6783C18.744234 12.41506 19.045742 11.675963 18.789459 11.068486C17.578405 8.1981592 15.678904 5.1962128 13.653778 2.8928635C12.317095 1.3286113 11.06584 0.19465472 9.7693567 0.02253633C8.4326735 -0.14958206 7.3070459 0.67557377 5.6688552 2.1082063C4.2015185 3.4142809 3.2919707 4.8469133 2.3472471 6.5022874C1.3974985 8.1121006 0.66383165 9.6763525 0.10101765 10.936867C-0.16028884 11.544343 0.101018 12.28344 0.70403302 12.546679C1.3070481 12.809919 2.0407145 12.546679 2.302021 11.939202C2.8196089 10.719187 3.5985048 9.2409945 4.4628263 7.7223029C5.1964946 6.5022869 7.8748846 2.1993277 9.5985031 2.417007C11.759307 2.7207453 15.427648 9.377676 16.54825 12.030324L16.543228 12.025262Z"/>
	<path fill="#E1111C" transform="translate(151.404 15.1085)" d="M1.5562787 2.8124285C0.90803748 2.9845469 0.21959803 2.6808085 0.043718629 2.0277712C-0.12713563 1.3747338 0.21457534 0.68119806 0.86281651 0.50401741C6.4758816 -0.58437824 9.8427134 0.2407776 12.606532 1.5468522C13.727136 2.2859488 14.852763 3.1111045 15.370352 4.0678802C15.933166 5.1107149 16.189449 6.0269923 16.063822 7.1103258C15.892967 8.7606373 14.943213 10.329951 13.169344 11.372787C12.305022 11.894203 11.355272 12.243503 10.365323 12.461182C9.4155741 12.678861 8.5110512 12.76492 7.6015038 12.810481C6.6517553 12.856042 5.8728628 12.89654 5.0989938 12.810481C4.2798982 12.724422 3.4608066 12.461182 2.551259 12.025823C2.2045252 11.853704 1.772364 11.504406 1.6869369 11.155107L1.6417049 11.241166L1.6417049 4.2906213C2.0738657 3.070606 3.7120597 3.4654658 3.7572861 4.2906213L3.9281385 9.9452162C3.666832 11.119671 6.8226151 10.684312 7.4658313 10.638752C8.2849264 10.593191 9.1040211 10.507132 9.8829155 10.335013C10.616584 10.162894 11.310048 9.9452162 11.953264 9.5503559C13.033667 8.9428797 13.551257 7.7684255 13.636684 6.8977089C13.681911 6.3307309 13.551257 5.6776929 13.204523 5.115777C12.85779 4.4627399 12.299997 3.8552635 11.521103 3.3743446C9.4909525 2.1998897 6.425631 1.506354 1.5462339 2.8073664L1.5562787 2.8124285Z"/>
	<path fill="#E1111C" transform="translate(167.114 15.0737)" d="M2.3379271 12.025262C2.0766206 12.632739 1.3429559 12.936478 0.73994088 12.6783C0.13692577 12.41506 -0.16458601 11.675963 0.091695391 11.068486C1.3027507 8.1981592 3.2022488 5.1962128 5.2273746 2.8928635C6.5640578 1.3286113 7.81532 0.19465472 9.1118021 0.02253633C10.448485 -0.14958206 11.574116 0.67557377 13.212306 2.1082063C14.679644 3.4142809 15.589188 4.8469133 16.538937 6.5022874C17.488686 8.1121006 18.222353 9.6763525 18.785168 10.936867C19.046474 11.544343 18.785162 12.28344 18.182146 12.546679C17.579132 12.809919 16.845467 12.546679 16.58416 11.939202C16.066572 10.719187 15.287685 9.2409945 14.423364 7.7223029C13.689695 6.5022869 11.011303 2.1993277 9.2876844 2.417007C7.1268806 2.7207453 3.4585302 9.377676 2.3379271 12.030324L2.3379271 12.025262Z"/>
</svg>
