<svg width="316" height="74" viewBox="0 0 316 74" fill="none" xmlns="http://www.w3.org/2000/svg">
<path d="M143.676 5.96115L129.94 58.1833C125.708 58.8991 120.996 59.0567 115.803 58.1833L106.22 23.1317L96.4765 58.1833C92.1642 58.9792 87.6129 59.0567 82.5009 58.1833L68.6837 5.96115C73.157 5.00767 77.4694 5.08777 81.6208 5.96115L90.5649 42.7622L99.1896 5.96115C103.502 5.08777 108.614 5.00767 113.085 5.96115L123.467 42.9224L130.734 5.96115C135.207 5.00767 139.598 5.08777 143.671 5.96115H143.676Z" fill="#2C2A29"/>
<path d="M142.851 38.1521C142.851 25.4338 151.475 17.4855 163.693 17.4855C175.911 17.4855 184.536 25.7516 184.536 38.1521C184.536 50.5526 176.311 58.8989 163.693 58.8989C151.076 58.8989 142.851 50.7129 142.851 38.1521ZM172.479 38.1521C172.479 31.6353 169.286 27.8188 163.693 27.8188C158.101 27.8188 154.908 31.6353 154.908 38.1521C154.908 44.6689 158.182 48.5656 163.693 48.5656C169.205 48.5656 172.479 44.9893 172.479 38.1521Z" fill="#2C2A29"/>
<path d="M250.896 29.8063V58.1035H238.998V34.0208C238.998 29.8089 236.282 27.6616 231.492 27.6616C229.256 27.6616 227.099 28.1397 225.341 28.8528C225.98 30.6022 226.299 32.5092 226.299 34.5764V58.1035H214.401V34.0208C214.401 29.8089 211.685 27.6616 206.895 27.6616C205.059 27.6616 203.302 27.8993 201.783 28.2973V58.1035H189.723L189.804 22.734C194.597 19.3955 202.102 17.5686 208.411 17.5686C213.443 17.5686 217.755 19.2379 220.871 21.9407C224.944 19.318 230.614 17.5686 235.404 17.5686C244.11 17.5686 250.896 22.1784 250.896 29.8089V29.8063Z" fill="#2C2A29"/>
<path d="M298.511 39.5039C298.511 50.3127 293.399 58.8992 281.34 58.8992C277.666 58.8992 273.673 57.708 270.319 55.4005V70.106C267.603 72.2507 261.455 74 258.259 74V20.6667C262.172 18.8399 268.561 17.566 275.189 17.566C289.645 17.566 298.509 25.4342 298.509 39.5039H298.511ZM286.53 38.0724C286.53 32.1913 283.336 27.1034 275.909 27.1034C274.231 27.1034 272.315 27.2636 270.319 27.5814V48.3282C271.915 48.646 273.834 48.8838 276.228 48.8838C282.617 48.8838 286.53 45.9432 286.53 38.075V38.0724Z" fill="#2C2A29"/>
<path d="M303.621 6.11886C303.621 2.78036 306.417 0 309.772 0C313.126 0 316 2.70284 316 6.11886C316 9.53487 313.204 12.2403 309.772 12.2403C306.339 12.2403 303.621 9.53746 303.621 6.11886ZM303.782 18.6796C305.459 17.9638 307.536 17.5659 309.852 17.5659C312.168 17.5659 314.164 17.9638 315.842 18.6796V58.1033H303.782V18.6796Z" fill="#2C2A29"/>
<path d="M54.002 6.62519V21.1342C54.002 22.005 53.5762 22.8242 52.8622 23.328L38.9437 33.1394C38.9437 33.1394 38.9308 33.1471 38.9256 33.1523C38.2817 33.6148 37.8767 34.3332 37.8144 35.1135C37.8066 35.1885 37.804 35.2634 37.804 35.3383V57.6846C37.804 58.4262 37.1991 59.0283 36.4539 59.0283H35.4284C34.9481 59.0283 34.5042 58.7724 34.2627 58.3616L20.0223 34.0619C20.0223 34.0619 20.0171 34.0515 20.0119 34.0489C19.7003 33.5373 18.9033 33.757 18.9033 34.3616V57.6846C18.9033 58.4262 18.2984 59.0283 17.5532 59.0283H16.5277C16.0474 59.0283 15.6035 58.7724 15.362 58.3616L0.545212 33.0825C0.18693 32.4753 0 31.7828 0 31.0774V6.62519C0 5.88101 0.604926 5.28153 1.35005 5.28153H2.37557C2.85328 5.28153 3.29724 5.53476 3.54129 5.94561L17.7817 30.2453C18.0907 30.7725 18.9007 30.5554 18.9007 29.9456V6.62519C18.9007 5.88101 19.5056 5.28153 20.2507 5.28153H21.2763C21.754 5.28153 22.1979 5.53476 22.442 5.94561L36.6824 30.2453C36.9914 30.7725 37.8014 30.5554 37.8014 29.9456V17.1937C37.8014 15.9017 38.4297 14.6898 39.489 13.943L51.4265 5.527C51.655 5.3668 51.9276 5.28153 52.208 5.28153H52.652C53.3971 5.28153 54.002 5.88101 54.002 6.62519Z" fill="#2C2A29"/>
</svg>
